# Generated 3D Mesh for Chronicles of Dominion
mtllib bronze_units.mtl
v -0.2500 0.7750 0.1600
v 0.2500 0.7750 0.1600
v 0.2500 1.4250 0.1600
v -0.2500 1.4250 0.1600
v -0.2500 0.7750 -0.1600
v 0.2500 0.7750 -0.1600
v 0.2500 1.4250 -0.1600
v -0.2500 1.4250 -0.1600
v -0.2400 0.4750 0.1700
v 0.2400 0.4750 0.1700
v 0.2400 0.8250 0.1700
v -0.2400 0.8250 0.1700
v -0.2400 0.4750 -0.1700
v 0.2400 0.4750 -0.1700
v 0.2400 0.8250 -0.1700
v -0.2400 0.8250 -0.1700
v -0.1500 1.4500 0.1500
v 0.1500 1.4500 0.1500
v 0.1500 1.7500 0.1500
v -0.1500 1.7500 0.1500
v -0.1500 1.4500 -0.1500
v 0.1500 1.4500 -0.1500
v 0.1500 1.7500 -0.1500
v -0.1500 1.7500 -0.1500
v -0.2300 0.0000 0.0900
v -0.0700 0.0000 0.0900
v -0.0700 0.5000 0.0900
v -0.2300 0.5000 0.0900
v -0.2300 0.0000 -0.0900
v -0.0700 0.0000 -0.0900
v -0.0700 0.5000 -0.0900
v -0.2300 0.5000 -0.0900
v 0.0700 0.0000 0.0900
v 0.2300 0.0000 0.0900
v 0.2300 0.5000 0.0900
v 0.0700 0.5000 0.0900
v 0.0700 0.0000 -0.0900
v 0.2300 0.0000 -0.0900
v 0.2300 0.5000 -0.0900
v 0.0700 0.5000 -0.0900
v 0.3700 1.5000 0.1000
v 0.3700 2.1000 0.1000
v 0.3500 1.5000 0.1200
v 0.3500 2.1000 0.1200
v 0.3300 1.5000 0.1000
v 0.3300 2.1000 0.1000
v 0.3500 1.5000 0.0800
v 0.3500 2.1000 0.0800
v 0.3500 1.5000 0.1000
v 0.3500 2.1000 0.1000
v 0.3000 2.1000 0.1500
v 0.4000 2.1000 0.1500
v 0.4000 2.2000 0.1500
v 0.3000 2.2000 0.1500
v 0.3000 2.1000 0.0500
v 0.4000 2.1000 0.0500
v 0.4000 2.2000 0.0500
v 0.3000 2.2000 0.0500
vt 0.0000 0.0000
vt 1.0000 0.0000
vt 1.0000 1.0000
vt 0.0000 1.0000
vt 0.0000 0.0000
vt 1.0000 0.0000
vt 1.0000 1.0000
vt 0.0000 1.0000
vt 0.0000 0.0000
vt 1.0000 0.0000
vt 1.0000 1.0000
vt 0.0000 1.0000
vt 0.0000 0.0000
vt 1.0000 0.0000
vt 1.0000 1.0000
vt 0.0000 1.0000
vt 0.0000 0.0000
vt 1.0000 0.0000
vt 1.0000 1.0000
vt 0.0000 1.0000
vt 0.0000 0.0000
vt 1.0000 0.0000
vt 1.0000 1.0000
vt 0.0000 1.0000
vt 0.0000 0.0000
vt 1.0000 0.0000
vt 1.0000 1.0000
vt 0.0000 1.0000
vt 0.0000 0.0000
vt 1.0000 0.0000
vt 1.0000 1.0000
vt 0.0000 1.0000
vt 0.0000 0.0000
vt 1.0000 0.0000
vt 1.0000 1.0000
vt 0.0000 1.0000
vt 0.0000 0.0000
vt 1.0000 0.0000
vt 1.0000 1.0000
vt 0.0000 1.0000
vt 0.0000 0.0000
vt 1.0000 0.0000
vt 1.0000 1.0000
vt 0.0000 1.0000
vt 0.0000 0.0000
vt 1.0000 0.0000
vt 1.0000 1.0000
vt 0.0000 1.0000
vt 0.0000 0.0000
vt 1.0000 0.0000
vt 1.0000 1.0000
vt 0.0000 1.0000
vt 0.0000 0.0000
vt 1.0000 0.0000
vt 1.0000 1.0000
vt 0.0000 1.0000
vt 0.0000 0.0000
vt 1.0000 0.0000
vt 1.0000 1.0000
vt 0.0000 1.0000
vt 0.0000 0.0000
vt 1.0000 0.0000
vt 1.0000 1.0000
vt 0.0000 1.0000
vt 0.0000 0.0000
vt 1.0000 0.0000
vt 1.0000 1.0000
vt 0.0000 1.0000
vt 0.0000 0.0000
vt 1.0000 0.0000
vt 1.0000 1.0000
vt 0.0000 1.0000
vt 0.0000 0.0000
vt 1.0000 0.0000
vt 1.0000 1.0000
vt 0.0000 1.0000
vt 0.0000 0.0000
vt 1.0000 0.0000
vt 1.0000 1.0000
vt 0.0000 1.0000
vt 0.0000 0.0000
vt 1.0000 0.0000
vt 1.0000 1.0000
vt 0.0000 1.0000
vt 0.0000 0.0000
vt 1.0000 0.0000
vt 1.0000 1.0000
vt 0.0000 1.0000
vt 0.0000 0.0000
vt 1.0000 0.0000
vt 1.0000 1.0000
vt 0.0000 1.0000
vt 0.0000 0.0000
vt 1.0000 0.0000
vt 1.0000 1.0000
vt 0.0000 1.0000
vt 0.0000 0.0000
vt 1.0000 0.0000
vt 1.0000 1.0000
vt 0.0000 1.0000
vt 0.0000 0.0000
vt 1.0000 0.0000
vt 1.0000 1.0000
vt 0.0000 1.0000
vt 0.0000 0.0000
vt 1.0000 0.0000
vt 1.0000 1.0000
vt 0.0000 1.0000
vt 0.0000 0.0000
vt 1.0000 0.0000
vt 1.0000 1.0000
vt 0.0000 1.0000
vt 0.0000 0.0000
vt 1.0000 0.0000
vt 1.0000 1.0000
vt 0.0000 1.0000
vt 0.0000 0.0000
vt 1.0000 0.0000
vt 1.0000 1.0000
vt 0.0000 1.0000
vt 0.0000 0.0000
vt 0.2500 0.0000
vt 0.2500 1.0000
vt 0.0000 1.0000
vt 0.5000 0.5000
vt 0.0000 0.0000
vt 1.0000 0.0000
vt 0.5000 0.5000
vt 1.0000 0.0000
vt 0.0000 0.0000
vt 0.2500 0.0000
vt 0.5000 0.0000
vt 0.5000 1.0000
vt 0.2500 1.0000
vt 0.5000 0.5000
vt 0.0000 0.0000
vt 1.0000 0.0000
vt 0.5000 0.5000
vt 1.0000 0.0000
vt 0.0000 0.0000
vt 0.5000 0.0000
vt 0.7500 0.0000
vt 0.7500 1.0000
vt 0.5000 1.0000
vt 0.5000 0.5000
vt 0.0000 0.0000
vt 1.0000 0.0000
vt 0.5000 0.5000
vt 1.0000 0.0000
vt 0.0000 0.0000
vt 0.7500 0.0000
vt 1.0000 0.0000
vt 1.0000 1.0000
vt 0.7500 1.0000
vt 0.5000 0.5000
vt 0.0000 0.0000
vt 1.0000 0.0000
vt 0.5000 0.5000
vt 1.0000 0.0000
vt 0.0000 0.0000
vt 0.0000 0.0000
vt 1.0000 0.0000
vt 1.0000 1.0000
vt 0.0000 1.0000
vt 0.0000 0.0000
vt 1.0000 0.0000
vt 1.0000 1.0000
vt 0.0000 1.0000
vt 0.0000 0.0000
vt 1.0000 0.0000
vt 1.0000 1.0000
vt 0.0000 1.0000
vt 0.0000 0.0000
vt 1.0000 0.0000
vt 1.0000 1.0000
vt 0.0000 1.0000
vt 0.0000 0.0000
vt 1.0000 0.0000
vt 1.0000 1.0000
vt 0.0000 1.0000
vt 0.0000 0.0000
vt 1.0000 0.0000
vt 1.0000 1.0000
vt 0.0000 1.0000
vn 0.0000 0.0000 1.0000
vn 0.0000 0.0000 -1.0000
vn -1.0000 0.0000 0.0000
vn 1.0000 0.0000 0.0000
vn 0.0000 1.0000 0.0000
vn 0.0000 -1.0000 0.0000
vn 0.0000 0.0000 1.0000
vn 0.0000 0.0000 -1.0000
vn -1.0000 0.0000 0.0000
vn 1.0000 0.0000 0.0000
vn 0.0000 1.0000 0.0000
vn 0.0000 -1.0000 0.0000
vn 0.0000 0.0000 1.0000
vn 0.0000 0.0000 -1.0000
vn -1.0000 0.0000 0.0000
vn 1.0000 0.0000 0.0000
vn 0.0000 1.0000 0.0000
vn 0.0000 -1.0000 0.0000
vn 0.0000 0.0000 1.0000
vn 0.0000 0.0000 -1.0000
vn -1.0000 0.0000 0.0000
vn 1.0000 0.0000 0.0000
vn 0.0000 1.0000 0.0000
vn 0.0000 -1.0000 0.0000
vn 0.0000 0.0000 1.0000
vn 0.0000 0.0000 -1.0000
vn -1.0000 0.0000 0.0000
vn 1.0000 0.0000 0.0000
vn 0.0000 1.0000 0.0000
vn 0.0000 -1.0000 0.0000
vn -0.7071 0.0000 -0.7071
vn 0.0000 1.0000 0.0000
vn 0.0000 -1.0000 0.0000
vn 0.7071 0.0000 -0.7071
vn 0.0000 1.0000 0.0000
vn 0.0000 -1.0000 0.0000
vn 0.7071 0.0000 0.7071
vn 0.0000 1.0000 0.0000
vn 0.0000 -1.0000 0.0000
vn -0.7071 0.0000 0.7071
vn 0.0000 1.0000 0.0000
vn 0.0000 -1.0000 0.0000
vn 0.0000 0.0000 1.0000
vn 0.0000 0.0000 -1.0000
vn -1.0000 0.0000 0.0000
vn 1.0000 0.0000 0.0000
vn 0.0000 1.0000 0.0000
vn 0.0000 -1.0000 0.0000
usemtl TunicLinen
f 1/1/1 2/2/1 3/3/1
f 1/1/1 3/3/1 4/4/1
f 6/5/2 5/6/2 8/7/2
f 6/5/2 8/7/2 7/8/2
f 5/9/3 1/10/3 4/11/3
f 5/9/3 4/11/3 8/12/3
f 2/13/4 6/14/4 7/15/4
f 2/13/4 7/15/4 3/16/4
f 4/17/5 3/18/5 7/19/5
f 4/17/5 7/19/5 8/20/5
f 5/21/6 6/22/6 2/23/6
f 5/21/6 2/23/6 1/24/6
f 9/25/7 10/26/7 11/27/7
f 9/25/7 11/27/7 12/28/7
f 14/29/8 13/30/8 16/31/8
f 14/29/8 16/31/8 15/32/8
f 13/33/9 9/34/9 12/35/9
f 13/33/9 12/35/9 16/36/9
f 10/37/10 14/38/10 15/39/10
f 10/37/10 15/39/10 11/40/10
f 12/41/11 11/42/11 15/43/11
f 12/41/11 15/43/11 16/44/11
f 13/45/12 14/46/12 10/47/12
f 13/45/12 10/47/12 9/48/12
f 17/49/13 18/50/13 19/51/13
f 17/49/13 19/51/13 20/52/13
f 22/53/14 21/54/14 24/55/14
f 22/53/14 24/55/14 23/56/14
f 21/57/15 17/58/15 20/59/15
f 21/57/15 20/59/15 24/60/15
f 18/61/16 22/62/16 23/63/16
f 18/61/16 23/63/16 19/64/16
f 20/65/17 19/66/17 23/67/17
f 20/65/17 23/67/17 24/68/17
f 21/69/18 22/70/18 18/71/18
f 21/69/18 18/71/18 17/72/18
usemtl FleshSkin
f 25/73/19 26/74/19 27/75/19
f 25/73/19 27/75/19 28/76/19
f 30/77/20 29/78/20 32/79/20
f 30/77/20 32/79/20 31/80/20
f 29/81/21 25/82/21 28/83/21
f 29/81/21 28/83/21 32/84/21
f 26/85/22 30/86/22 31/87/22
f 26/85/22 31/87/22 27/88/22
f 28/89/23 27/90/23 31/91/23
f 28/89/23 31/91/23 32/92/23
f 29/93/24 30/94/24 26/95/24
f 29/93/24 26/95/24 25/96/24
f 33/97/25 34/98/25 35/99/25
f 33/97/25 35/99/25 36/100/25
f 38/101/26 37/102/26 40/103/26
f 38/101/26 40/103/26 39/104/26
f 37/105/27 33/106/27 36/107/27
f 37/105/27 36/107/27 40/108/27
f 34/109/28 38/110/28 39/111/28
f 34/109/28 39/111/28 35/112/28
f 36/113/29 35/114/29 39/115/29
f 36/113/29 39/115/29 40/116/29
f 37/117/30 38/118/30 34/119/30
f 37/117/30 34/119/30 33/120/30
usemtl WoodSpear
f 41/121/31 43/122/31 44/123/31
f 41/121/31 44/123/31 42/124/31
f 50/125/32 42/126/32 44/127/32
f 49/128/33 43/129/33 41/130/33
f 43/131/34 45/132/34 46/133/34
f 43/131/34 46/133/34 44/134/34
f 50/135/35 44/136/35 46/137/35
f 49/138/36 45/139/36 43/140/36
f 45/141/37 47/142/37 48/143/37
f 45/141/37 48/143/37 46/144/37
f 50/145/38 46/146/38 48/147/38
f 49/148/39 47/149/39 45/150/39
f 47/151/40 41/152/40 42/153/40
f 47/151/40 42/153/40 48/154/40
f 50/155/41 48/156/41 42/157/41
f 49/158/42 41/159/42 47/160/42
usemtl TowerShield
f 51/161/43 52/162/43 53/163/43
f 51/161/43 53/163/43 54/164/43
f 56/165/44 55/166/44 58/167/44
f 56/165/44 58/167/44 57/168/44
f 55/169/45 51/170/45 54/171/45
f 55/169/45 54/171/45 58/172/45
f 52/173/46 56/174/46 57/175/46
f 52/173/46 57/175/46 53/176/46
f 54/177/47 53/178/47 57/179/47
f 54/177/47 57/179/47 58/180/47
f 55/181/48 56/182/48 52/183/48
f 55/181/48 52/183/48 51/184/48
